<mxfile host="app.diagrams.net" modified="2023-04-20T21:55:53.131Z" agent="Mozilla/5.0 (Windows NT 10.0; Win64; x64) AppleWebKit/537.36 (KHTML, like Gecko) Chrome/112.0.0.0 Safari/537.36" etag="mkb1Fs1dPt1XnVeR-ZXY" version="21.2.1" type="github">
  <diagram name="Page-1" id="wj9166zeu8E6wCw7k_po">
    <mxGraphModel dx="880" dy="476" grid="1" gridSize="10" guides="1" tooltips="1" connect="1" arrows="1" fold="1" page="1" pageScale="1" pageWidth="827" pageHeight="1169" math="0" shadow="0">
      <root>
        <mxCell id="0" />
        <mxCell id="1" parent="0" />
        <mxCell id="bdfGBAIHHRgrsFEkhaWC-1" value="user" style="swimlane;whiteSpace=wrap;html=1;" vertex="1" parent="1">
          <mxGeometry x="60" y="38" width="160" height="202" as="geometry" />
        </mxCell>
        <mxCell id="bdfGBAIHHRgrsFEkhaWC-3" value="Pseudo" style="text;html=1;align=center;verticalAlign=middle;resizable=0;points=[];autosize=1;strokeColor=none;fillColor=none;" vertex="1" parent="bdfGBAIHHRgrsFEkhaWC-1">
          <mxGeometry x="50" y="58" width="60" height="30" as="geometry" />
        </mxCell>
        <mxCell id="bdfGBAIHHRgrsFEkhaWC-6" value="Password" style="text;html=1;align=center;verticalAlign=middle;resizable=0;points=[];autosize=1;strokeColor=none;fillColor=none;" vertex="1" parent="bdfGBAIHHRgrsFEkhaWC-1">
          <mxGeometry x="40" y="92" width="80" height="30" as="geometry" />
        </mxCell>
        <mxCell id="bdfGBAIHHRgrsFEkhaWC-2" value="Id" style="text;html=1;align=center;verticalAlign=middle;resizable=0;points=[];autosize=1;strokeColor=none;fillColor=none;" vertex="1" parent="bdfGBAIHHRgrsFEkhaWC-1">
          <mxGeometry x="65" y="28" width="30" height="30" as="geometry" />
        </mxCell>
        <mxCell id="bdfGBAIHHRgrsFEkhaWC-7" value="Email" style="text;html=1;align=center;verticalAlign=middle;resizable=0;points=[];autosize=1;strokeColor=none;fillColor=none;" vertex="1" parent="bdfGBAIHHRgrsFEkhaWC-1">
          <mxGeometry x="55" y="132" width="50" height="30" as="geometry" />
        </mxCell>
        <mxCell id="bdfGBAIHHRgrsFEkhaWC-8" value="Recipes" style="swimlane;whiteSpace=wrap;html=1;" vertex="1" parent="1">
          <mxGeometry x="60" y="320" width="180" height="270" as="geometry" />
        </mxCell>
        <mxCell id="bdfGBAIHHRgrsFEkhaWC-9" value="recipes_id" style="text;html=1;align=center;verticalAlign=middle;resizable=0;points=[];autosize=1;strokeColor=none;fillColor=none;" vertex="1" parent="bdfGBAIHHRgrsFEkhaWC-8">
          <mxGeometry x="40" y="30" width="80" height="30" as="geometry" />
        </mxCell>
        <mxCell id="bdfGBAIHHRgrsFEkhaWC-12" value="title" style="text;html=1;align=center;verticalAlign=middle;resizable=0;points=[];autosize=1;strokeColor=none;fillColor=none;" vertex="1" parent="bdfGBAIHHRgrsFEkhaWC-8">
          <mxGeometry x="55" y="58" width="40" height="30" as="geometry" />
        </mxCell>
        <mxCell id="bdfGBAIHHRgrsFEkhaWC-19" value="thumdnail" style="text;html=1;align=center;verticalAlign=middle;resizable=0;points=[];autosize=1;strokeColor=none;fillColor=none;" vertex="1" parent="bdfGBAIHHRgrsFEkhaWC-8">
          <mxGeometry x="45" y="168" width="80" height="30" as="geometry" />
        </mxCell>
        <mxCell id="bdfGBAIHHRgrsFEkhaWC-15" value="description" style="text;html=1;align=center;verticalAlign=middle;resizable=0;points=[];autosize=1;strokeColor=none;fillColor=none;" vertex="1" parent="bdfGBAIHHRgrsFEkhaWC-8">
          <mxGeometry x="45" y="200" width="80" height="30" as="geometry" />
        </mxCell>
        <mxCell id="bdfGBAIHHRgrsFEkhaWC-13" value="date" style="text;html=1;align=center;verticalAlign=middle;resizable=0;points=[];autosize=1;strokeColor=none;fillColor=none;" vertex="1" parent="bdfGBAIHHRgrsFEkhaWC-8">
          <mxGeometry x="50" y="88" width="50" height="30" as="geometry" />
        </mxCell>
        <mxCell id="bdfGBAIHHRgrsFEkhaWC-14" value="date" style="text;html=1;align=center;verticalAlign=middle;resizable=0;points=[];autosize=1;strokeColor=none;fillColor=none;" vertex="1" parent="bdfGBAIHHRgrsFEkhaWC-8">
          <mxGeometry x="50" y="130" width="50" height="30" as="geometry" />
        </mxCell>
        <mxCell id="bdfGBAIHHRgrsFEkhaWC-20" value="number_of_covers" style="text;html=1;align=center;verticalAlign=middle;resizable=0;points=[];autosize=1;strokeColor=none;fillColor=none;" vertex="1" parent="1">
          <mxGeometry x="90" y="558" width="120" height="30" as="geometry" />
        </mxCell>
        <mxCell id="bdfGBAIHHRgrsFEkhaWC-21" value="Category" style="swimlane;whiteSpace=wrap;html=1;" vertex="1" parent="1">
          <mxGeometry x="560" y="340" width="200" height="200" as="geometry" />
        </mxCell>
        <mxCell id="bdfGBAIHHRgrsFEkhaWC-22" value="category_id" style="text;html=1;align=center;verticalAlign=middle;resizable=0;points=[];autosize=1;strokeColor=none;fillColor=none;" vertex="1" parent="1">
          <mxGeometry x="615" y="378" width="90" height="30" as="geometry" />
        </mxCell>
        <mxCell id="bdfGBAIHHRgrsFEkhaWC-23" value="title" style="text;html=1;align=center;verticalAlign=middle;resizable=0;points=[];autosize=1;strokeColor=none;fillColor=none;" vertex="1" parent="1">
          <mxGeometry x="640" y="418" width="40" height="30" as="geometry" />
        </mxCell>
        <mxCell id="bdfGBAIHHRgrsFEkhaWC-24" value="Category_recipes" style="swimlane;fontStyle=0;childLayout=stackLayout;horizontal=1;startSize=30;horizontalStack=0;resizeParent=1;resizeParentMax=0;resizeLast=0;collapsible=1;marginBottom=0;whiteSpace=wrap;html=1;" vertex="1" parent="1">
          <mxGeometry x="320" y="360" width="140" height="90" as="geometry" />
        </mxCell>
        <mxCell id="bdfGBAIHHRgrsFEkhaWC-25" value="recipes_id" style="text;strokeColor=none;fillColor=none;align=center;verticalAlign=middle;spacingLeft=4;spacingRight=4;overflow=hidden;points=[[0,0.5],[1,0.5]];portConstraint=eastwest;rotatable=0;whiteSpace=wrap;html=1;" vertex="1" parent="bdfGBAIHHRgrsFEkhaWC-24">
          <mxGeometry y="30" width="140" height="30" as="geometry" />
        </mxCell>
        <mxCell id="bdfGBAIHHRgrsFEkhaWC-26" value="category_i" style="text;strokeColor=none;fillColor=none;align=center;verticalAlign=middle;spacingLeft=4;spacingRight=4;overflow=hidden;points=[[0,0.5],[1,0.5]];portConstraint=eastwest;rotatable=0;whiteSpace=wrap;html=1;" vertex="1" parent="bdfGBAIHHRgrsFEkhaWC-24">
          <mxGeometry y="60" width="140" height="30" as="geometry" />
        </mxCell>
        <mxCell id="bdfGBAIHHRgrsFEkhaWC-28" style="edgeStyle=orthogonalEdgeStyle;rounded=0;orthogonalLoop=1;jettySize=auto;html=1;entryX=-0.033;entryY=0.367;entryDx=0;entryDy=0;entryPerimeter=0;" edge="1" parent="1" source="bdfGBAIHHRgrsFEkhaWC-26" target="bdfGBAIHHRgrsFEkhaWC-22">
          <mxGeometry relative="1" as="geometry">
            <Array as="points">
              <mxPoint x="530" y="440" />
              <mxPoint x="530" y="389" />
            </Array>
          </mxGeometry>
        </mxCell>
        <mxCell id="bdfGBAIHHRgrsFEkhaWC-29" style="edgeStyle=orthogonalEdgeStyle;rounded=0;orthogonalLoop=1;jettySize=auto;html=1;entryX=1;entryY=0.233;entryDx=0;entryDy=0;entryPerimeter=0;" edge="1" parent="1" source="bdfGBAIHHRgrsFEkhaWC-25" target="bdfGBAIHHRgrsFEkhaWC-9">
          <mxGeometry relative="1" as="geometry" />
        </mxCell>
        <mxCell id="bdfGBAIHHRgrsFEkhaWC-30" value="favority" style="swimlane;fontStyle=0;childLayout=stackLayout;horizontal=1;startSize=30;horizontalStack=0;resizeParent=1;resizeParentMax=0;resizeLast=0;collapsible=1;marginBottom=0;whiteSpace=wrap;html=1;" vertex="1" parent="1">
          <mxGeometry x="330" y="110" width="140" height="120" as="geometry" />
        </mxCell>
        <mxCell id="bdfGBAIHHRgrsFEkhaWC-31" value="favority_id" style="text;strokeColor=none;fillColor=none;align=center;verticalAlign=middle;spacingLeft=4;spacingRight=4;overflow=hidden;points=[[0,0.5],[1,0.5]];portConstraint=eastwest;rotatable=0;whiteSpace=wrap;html=1;" vertex="1" parent="bdfGBAIHHRgrsFEkhaWC-30">
          <mxGeometry y="30" width="140" height="30" as="geometry" />
        </mxCell>
        <mxCell id="bdfGBAIHHRgrsFEkhaWC-32" value="favority_user_id" style="text;strokeColor=none;fillColor=none;align=center;verticalAlign=middle;spacingLeft=4;spacingRight=4;overflow=hidden;points=[[0,0.5],[1,0.5]];portConstraint=eastwest;rotatable=0;whiteSpace=wrap;html=1;" vertex="1" parent="bdfGBAIHHRgrsFEkhaWC-30">
          <mxGeometry y="60" width="140" height="30" as="geometry" />
        </mxCell>
        <mxCell id="bdfGBAIHHRgrsFEkhaWC-33" value="favority_recipes_id" style="text;strokeColor=none;fillColor=none;align=center;verticalAlign=middle;spacingLeft=4;spacingRight=4;overflow=hidden;points=[[0,0.5],[1,0.5]];portConstraint=eastwest;rotatable=0;whiteSpace=wrap;html=1;" vertex="1" parent="bdfGBAIHHRgrsFEkhaWC-30">
          <mxGeometry y="90" width="140" height="30" as="geometry" />
        </mxCell>
        <mxCell id="bdfGBAIHHRgrsFEkhaWC-42" style="edgeStyle=orthogonalEdgeStyle;rounded=0;orthogonalLoop=1;jettySize=auto;html=1;entryX=-0.025;entryY=0.367;entryDx=0;entryDy=0;entryPerimeter=0;exitX=0;exitY=0.4;exitDx=0;exitDy=0;exitPerimeter=0;" edge="1" parent="1" source="bdfGBAIHHRgrsFEkhaWC-35" target="bdfGBAIHHRgrsFEkhaWC-9">
          <mxGeometry relative="1" as="geometry">
            <Array as="points">
              <mxPoint x="40" y="760" />
              <mxPoint x="40" y="361" />
            </Array>
          </mxGeometry>
        </mxCell>
        <mxCell id="bdfGBAIHHRgrsFEkhaWC-34" value="ingredient_recipes" style="swimlane;whiteSpace=wrap;html=1;" vertex="1" parent="1">
          <mxGeometry x="80" y="700" width="200" height="200" as="geometry" />
        </mxCell>
        <mxCell id="bdfGBAIHHRgrsFEkhaWC-35" value="recipes_id&amp;nbsp;" style="text;html=1;align=center;verticalAlign=middle;resizable=0;points=[];autosize=1;strokeColor=none;fillColor=none;" vertex="1" parent="1">
          <mxGeometry x="120" y="748" width="80" height="30" as="geometry" />
        </mxCell>
        <mxCell id="bdfGBAIHHRgrsFEkhaWC-43" style="edgeStyle=orthogonalEdgeStyle;rounded=0;orthogonalLoop=1;jettySize=auto;html=1;" edge="1" parent="1" source="bdfGBAIHHRgrsFEkhaWC-36" target="bdfGBAIHHRgrsFEkhaWC-40">
          <mxGeometry relative="1" as="geometry">
            <Array as="points">
              <mxPoint x="360" y="793" />
              <mxPoint x="360" y="750" />
            </Array>
          </mxGeometry>
        </mxCell>
        <mxCell id="bdfGBAIHHRgrsFEkhaWC-36" value="ingredient_id&amp;nbsp;" style="text;html=1;align=center;verticalAlign=middle;resizable=0;points=[];autosize=1;strokeColor=none;fillColor=none;" vertex="1" parent="1">
          <mxGeometry x="120" y="778" width="100" height="30" as="geometry" />
        </mxCell>
        <mxCell id="bdfGBAIHHRgrsFEkhaWC-37" value="quantity" style="text;html=1;align=center;verticalAlign=middle;resizable=0;points=[];autosize=1;strokeColor=none;fillColor=none;" vertex="1" parent="1">
          <mxGeometry x="135" y="818" width="70" height="30" as="geometry" />
        </mxCell>
        <mxCell id="bdfGBAIHHRgrsFEkhaWC-38" value="unit" style="text;html=1;align=center;verticalAlign=middle;resizable=0;points=[];autosize=1;strokeColor=none;fillColor=none;" vertex="1" parent="1">
          <mxGeometry x="150" y="858" width="40" height="30" as="geometry" />
        </mxCell>
        <mxCell id="bdfGBAIHHRgrsFEkhaWC-39" value="ingredient" style="swimlane;whiteSpace=wrap;html=1;" vertex="1" parent="1">
          <mxGeometry x="500" y="693" width="200" height="200" as="geometry" />
        </mxCell>
        <mxCell id="bdfGBAIHHRgrsFEkhaWC-41" value="title" style="text;html=1;align=center;verticalAlign=middle;resizable=0;points=[];autosize=1;strokeColor=none;fillColor=none;" vertex="1" parent="bdfGBAIHHRgrsFEkhaWC-39">
          <mxGeometry x="75" y="85" width="40" height="30" as="geometry" />
        </mxCell>
        <mxCell id="bdfGBAIHHRgrsFEkhaWC-40" value="ingredient_id&amp;nbsp;" style="text;html=1;align=center;verticalAlign=middle;resizable=0;points=[];autosize=1;strokeColor=none;fillColor=none;" vertex="1" parent="1">
          <mxGeometry x="550" y="738" width="100" height="30" as="geometry" />
        </mxCell>
        <mxCell id="bdfGBAIHHRgrsFEkhaWC-44" style="edgeStyle=orthogonalEdgeStyle;rounded=0;orthogonalLoop=1;jettySize=auto;html=1;entryX=0.967;entryY=0.5;entryDx=0;entryDy=0;entryPerimeter=0;" edge="1" parent="1" source="bdfGBAIHHRgrsFEkhaWC-32" target="bdfGBAIHHRgrsFEkhaWC-2">
          <mxGeometry relative="1" as="geometry">
            <Array as="points">
              <mxPoint x="243" y="190" />
              <mxPoint x="243" y="81" />
            </Array>
          </mxGeometry>
        </mxCell>
        <mxCell id="bdfGBAIHHRgrsFEkhaWC-45" style="edgeStyle=orthogonalEdgeStyle;rounded=0;orthogonalLoop=1;jettySize=auto;html=1;entryX=1.013;entryY=0.8;entryDx=0;entryDy=0;entryPerimeter=0;" edge="1" parent="1" source="bdfGBAIHHRgrsFEkhaWC-33" target="bdfGBAIHHRgrsFEkhaWC-9">
          <mxGeometry relative="1" as="geometry" />
        </mxCell>
      </root>
    </mxGraphModel>
  </diagram>
</mxfile>
